# xmcd CD database file
#
# Track frame offsets:
#	150
#	13147
#	22277
#	44685
#	66162
#	86735
#	113915
#	135995
#	158375
#	180095
#	199580
#	226290
#	246802
#	267112
#	288845
#	306895
#	326350
#
# Disc length: 4555 seconds
#
# Revision: 2
# Processed by: cddbd v1.5.2PL0 Copyright (c) Steve Scherf et al.
# Submitted via: CDex 1.70beta2
#
DISCID=de11c911
DTITLE=Arakain - 15 (vol. 1)
DYEAR=1998
DGENRE=Trash Metal
TTITLE0=M Jako Metal
TTITLE1=Zdař bůh
TTITLE2=Chorál
TTITLE3=Ztráty a nálezy
TTITLE4=Rebel
TTITLE5=Den potom
TTITLE6=Excalibur
TTITLE7=Proč
TTITLE8=Ku-Klux-Klan
TTITLE9=Pán bouře
TTITLE10=Kamennej Anděl
TTITLE11=Kolonie termitů
TTITLE12=Ukolébavka
TTITLE13=Marylin
TTITLE14=Adrian
TTITLE15=Ghetto
TTITLE16=Dvory Chaosu
EXTD=YEAR: 1998
EXTT0=
EXTT1=
EXTT2=
EXTT3=
EXTT4=
EXTT5=
EXTT6=
EXTT7=
EXTT8=
EXTT9=
EXTT10=
EXTT11=
EXTT12=
EXTT13=
EXTT14=
EXTT15=
EXTT16=
PLAYORDER=
